<mxfile host="app.diagrams.net" agent="Mozilla/5.0 (Macintosh; Intel Mac OS X 10_15_7) AppleWebKit/537.36 (KHTML, like Gecko) Chrome/137.0.0.0 Safari/537.36" version="27.1.3" pages="3">
  <diagram name="第 1 页" id="fTUEDOrTv79zOEb-v1D7">
    <mxGraphModel dx="1508" dy="818" grid="1" gridSize="10" guides="1" tooltips="1" connect="1" arrows="1" fold="1" page="1" pageScale="1" pageWidth="827" pageHeight="1169" math="0" shadow="0">
      <root>
        <mxCell id="0" />
        <mxCell id="1" parent="0" />
        <mxCell id="MWvnYcuaAELx0NijUDYo-43" style="rounded=0;orthogonalLoop=1;jettySize=auto;html=1;exitX=0;exitY=0.5;exitDx=0;exitDy=0;entryX=1;entryY=0.5;entryDx=0;entryDy=0;endArrow=none;startFill=0;endFill=1;" edge="1" parent="1" source="MWvnYcuaAELx0NijUDYo-48" target="MWvnYcuaAELx0NijUDYo-52">
          <mxGeometry relative="1" as="geometry" />
        </mxCell>
        <mxCell id="MWvnYcuaAELx0NijUDYo-70" value="&lt;span style=&quot;&quot;&gt;3. 通知 broker&lt;/span&gt;" style="edgeLabel;html=1;align=center;verticalAlign=middle;resizable=0;points=[];labelBackgroundColor=default;" vertex="1" connectable="0" parent="MWvnYcuaAELx0NijUDYo-43">
          <mxGeometry x="-0.0176" y="3" relative="1" as="geometry">
            <mxPoint as="offset" />
          </mxGeometry>
        </mxCell>
        <mxCell id="MWvnYcuaAELx0NijUDYo-44" style="rounded=0;orthogonalLoop=1;jettySize=auto;html=1;entryX=0;entryY=0.5;entryDx=0;entryDy=0;endArrow=none;startFill=0;exitX=1;exitY=0.5;exitDx=0;exitDy=0;" edge="1" parent="1" source="MWvnYcuaAELx0NijUDYo-48" target="MWvnYcuaAELx0NijUDYo-53">
          <mxGeometry relative="1" as="geometry" />
        </mxCell>
        <mxCell id="MWvnYcuaAELx0NijUDYo-45" style="rounded=0;orthogonalLoop=1;jettySize=auto;html=1;exitX=1;exitY=1;exitDx=0;exitDy=0;entryX=0;entryY=0;entryDx=0;entryDy=0;endArrow=none;startFill=0;" edge="1" parent="1" source="MWvnYcuaAELx0NijUDYo-48" target="MWvnYcuaAELx0NijUDYo-54">
          <mxGeometry relative="1" as="geometry" />
        </mxCell>
        <mxCell id="MWvnYcuaAELx0NijUDYo-46" style="rounded=0;orthogonalLoop=1;jettySize=auto;html=1;entryX=1;entryY=0;entryDx=0;entryDy=0;endArrow=none;startFill=0;exitX=0;exitY=1;exitDx=0;exitDy=0;" edge="1" parent="1" source="MWvnYcuaAELx0NijUDYo-48" target="MWvnYcuaAELx0NijUDYo-56">
          <mxGeometry relative="1" as="geometry" />
        </mxCell>
        <mxCell id="MWvnYcuaAELx0NijUDYo-47" style="rounded=0;orthogonalLoop=1;jettySize=auto;html=1;entryX=0.5;entryY=0;entryDx=0;entryDy=0;endArrow=none;startFill=0;exitX=0.5;exitY=1;exitDx=0;exitDy=0;" edge="1" parent="1" source="MWvnYcuaAELx0NijUDYo-48" target="MWvnYcuaAELx0NijUDYo-55">
          <mxGeometry relative="1" as="geometry" />
        </mxCell>
        <mxCell id="MWvnYcuaAELx0NijUDYo-67" style="rounded=0;orthogonalLoop=1;jettySize=auto;html=1;exitX=1;exitY=0;exitDx=0;exitDy=0;entryX=0.5;entryY=1;entryDx=0;entryDy=0;" edge="1" parent="1" source="MWvnYcuaAELx0NijUDYo-48" target="MWvnYcuaAELx0NijUDYo-66">
          <mxGeometry relative="1" as="geometry" />
        </mxCell>
        <mxCell id="MWvnYcuaAELx0NijUDYo-68" value="2. 更新" style="edgeLabel;html=1;align=center;verticalAlign=middle;resizable=0;points=[];" vertex="1" connectable="0" parent="MWvnYcuaAELx0NijUDYo-67">
          <mxGeometry x="-0.0655" y="1" relative="1" as="geometry">
            <mxPoint as="offset" />
          </mxGeometry>
        </mxCell>
        <mxCell id="MWvnYcuaAELx0NijUDYo-48" value="Server" style="ellipse;whiteSpace=wrap;html=1;fillColor=#dae8fc;strokeColor=#6c8ebf;" vertex="1" parent="1">
          <mxGeometry x="374" y="282.5" width="90" height="50" as="geometry" />
        </mxCell>
        <mxCell id="MWvnYcuaAELx0NijUDYo-72" style="rounded=0;orthogonalLoop=1;jettySize=auto;html=1;exitX=0;exitY=0;exitDx=0;exitDy=0;entryX=0.5;entryY=1;entryDx=0;entryDy=0;" edge="1" parent="1" source="MWvnYcuaAELx0NijUDYo-52" target="MWvnYcuaAELx0NijUDYo-71">
          <mxGeometry relative="1" as="geometry" />
        </mxCell>
        <mxCell id="MWvnYcuaAELx0NijUDYo-73" value="更新" style="edgeLabel;html=1;align=center;verticalAlign=middle;resizable=0;points=[];" vertex="1" connectable="0" parent="MWvnYcuaAELx0NijUDYo-72">
          <mxGeometry x="-0.1367" relative="1" as="geometry">
            <mxPoint as="offset" />
          </mxGeometry>
        </mxCell>
        <mxCell id="MWvnYcuaAELx0NijUDYo-52" value="Broker" style="ellipse;whiteSpace=wrap;html=1;fillColor=#ffe6cc;strokeColor=#d79b00;" vertex="1" parent="1">
          <mxGeometry x="180" y="282.5" width="90" height="50" as="geometry" />
        </mxCell>
        <mxCell id="MWvnYcuaAELx0NijUDYo-53" value="Backend" style="ellipse;whiteSpace=wrap;html=1;fillColor=#f8cecc;strokeColor=#b85450;" vertex="1" parent="1">
          <mxGeometry x="550" y="282.5" width="90" height="50" as="geometry" />
        </mxCell>
        <mxCell id="MWvnYcuaAELx0NijUDYo-54" value="Config" style="ellipse;whiteSpace=wrap;html=1;fillColor=#f5f5f5;strokeColor=#666666;fontColor=#333333;" vertex="1" parent="1">
          <mxGeometry x="500" y="392.5" width="90" height="50" as="geometry" />
        </mxCell>
        <mxCell id="MWvnYcuaAELx0NijUDYo-55" value="Lock" style="ellipse;whiteSpace=wrap;html=1;fillColor=#d5e8d4;strokeColor=#82b366;" vertex="1" parent="1">
          <mxGeometry x="374" y="392.5" width="90" height="50" as="geometry" />
        </mxCell>
        <mxCell id="MWvnYcuaAELx0NijUDYo-56" value="Scheduler" style="ellipse;whiteSpace=wrap;html=1;fillColor=#fff2cc;strokeColor=#d6b656;" vertex="1" parent="1">
          <mxGeometry x="250" y="392.5" width="90" height="50" as="geometry" />
        </mxCell>
        <mxCell id="MWvnYcuaAELx0NijUDYo-64" style="edgeStyle=orthogonalEdgeStyle;rounded=0;orthogonalLoop=1;jettySize=auto;html=1;entryX=0.5;entryY=0;entryDx=0;entryDy=0;" edge="1" parent="1" source="MWvnYcuaAELx0NijUDYo-62" target="MWvnYcuaAELx0NijUDYo-48">
          <mxGeometry relative="1" as="geometry" />
        </mxCell>
        <mxCell id="MWvnYcuaAELx0NijUDYo-65" value="1. 验证" style="edgeLabel;html=1;align=center;verticalAlign=middle;resizable=0;points=[];" vertex="1" connectable="0" parent="MWvnYcuaAELx0NijUDYo-64">
          <mxGeometry x="0.2652" y="1" relative="1" as="geometry">
            <mxPoint as="offset" />
          </mxGeometry>
        </mxCell>
        <mxCell id="MWvnYcuaAELx0NijUDYo-62" value="server.RegisterTasks" style="rounded=0;whiteSpace=wrap;html=1;fontStyle=1;strokeWidth=2;" vertex="1" parent="1">
          <mxGeometry x="349" y="120" width="140" height="50" as="geometry" />
        </mxCell>
        <mxCell id="MWvnYcuaAELx0NijUDYo-63" value="&quot;taskName1&quot;: taskFunc1&lt;div&gt;&quot;taskName2&quot;: taskFunc2&lt;/div&gt;" style="shape=note;whiteSpace=wrap;html=1;backgroundOutline=1;darkOpacity=0.05;size=8;fontSize=10;" vertex="1" parent="1">
          <mxGeometry x="354" y="185" width="130" height="30" as="geometry" />
        </mxCell>
        <mxCell id="MWvnYcuaAELx0NijUDYo-66" value="registeredTasks" style="rounded=1;whiteSpace=wrap;html=1;fillColor=#dae8fc;strokeColor=#6c8ebf;" vertex="1" parent="1">
          <mxGeometry x="500" y="225" width="100" height="30" as="geometry" />
        </mxCell>
        <mxCell id="MWvnYcuaAELx0NijUDYo-69" value="&quot;taskName1&quot;,&lt;div&gt;&lt;span style=&quot;background-color: transparent; color: light-dark(rgb(0, 0, 0), rgb(255, 255, 255));&quot;&gt;&quot;taskName2&quot;,&lt;/span&gt;&lt;/div&gt;&lt;div&gt;&lt;span style=&quot;background-color: transparent; color: light-dark(rgb(0, 0, 0), rgb(255, 255, 255));&quot;&gt;&quot;taskName3&quot;,&lt;/span&gt;&lt;/div&gt;&lt;div&gt;&lt;span style=&quot;background-color: transparent; color: light-dark(rgb(0, 0, 0), rgb(255, 255, 255));&quot;&gt;...&lt;/span&gt;&lt;/div&gt;" style="shape=note;whiteSpace=wrap;html=1;backgroundOutline=1;darkOpacity=0.05;size=8;fontSize=10;" vertex="1" parent="1">
          <mxGeometry x="284" y="237.5" width="70" height="60" as="geometry" />
        </mxCell>
        <mxCell id="MWvnYcuaAELx0NijUDYo-71" value="registeredTaskNames" style="rounded=1;whiteSpace=wrap;html=1;fillColor=#ffe6cc;strokeColor=#d79b00;" vertex="1" parent="1">
          <mxGeometry x="90" y="225" width="140" height="30" as="geometry" />
        </mxCell>
      </root>
    </mxGraphModel>
  </diagram>
  <diagram name="第 2 页" id="MIXUof7zKVek1d2MoT7w">
    <mxGraphModel dx="1508" dy="818" grid="1" gridSize="10" guides="1" tooltips="1" connect="1" arrows="1" fold="1" page="1" pageScale="1" pageWidth="827" pageHeight="1169" math="0" shadow="0">
      <root>
        <mxCell id="0" />
        <mxCell id="1" parent="0" />
        <mxCell id="v9z6lBJK89Xw3rwl5iZ4-1" style="rounded=0;orthogonalLoop=1;jettySize=auto;html=1;exitX=0;exitY=0;exitDx=0;exitDy=0;entryX=1;entryY=1;entryDx=0;entryDy=0;endArrow=none;startFill=0;endFill=1;" edge="1" parent="1" source="v9z6lBJK89Xw3rwl5iZ4-8" target="v9z6lBJK89Xw3rwl5iZ4-11">
          <mxGeometry relative="1" as="geometry" />
        </mxCell>
        <mxCell id="v9z6lBJK89Xw3rwl5iZ4-4" style="rounded=0;orthogonalLoop=1;jettySize=auto;html=1;entryX=0;entryY=1;entryDx=0;entryDy=0;endArrow=none;startFill=0;exitX=1;exitY=0;exitDx=0;exitDy=0;" edge="1" parent="1" source="v9z6lBJK89Xw3rwl5iZ4-8" target="v9z6lBJK89Xw3rwl5iZ4-20">
          <mxGeometry relative="1" as="geometry" />
        </mxCell>
        <mxCell id="v9z6lBJK89Xw3rwl5iZ4-5" style="rounded=0;orthogonalLoop=1;jettySize=auto;html=1;exitX=1;exitY=0.5;exitDx=0;exitDy=0;entryX=0;entryY=0.5;entryDx=0;entryDy=0;endArrow=none;startFill=0;" edge="1" parent="1" source="v9z6lBJK89Xw3rwl5iZ4-8" target="v9z6lBJK89Xw3rwl5iZ4-21">
          <mxGeometry relative="1" as="geometry" />
        </mxCell>
        <mxCell id="v9z6lBJK89Xw3rwl5iZ4-6" style="rounded=0;orthogonalLoop=1;jettySize=auto;html=1;entryX=1;entryY=0;entryDx=0;entryDy=0;endArrow=none;startFill=0;" edge="1" parent="1" source="v9z6lBJK89Xw3rwl5iZ4-8" target="v9z6lBJK89Xw3rwl5iZ4-23">
          <mxGeometry relative="1" as="geometry" />
        </mxCell>
        <mxCell id="v9z6lBJK89Xw3rwl5iZ4-7" style="rounded=0;orthogonalLoop=1;jettySize=auto;html=1;entryX=0;entryY=0;entryDx=0;entryDy=0;endArrow=none;startFill=0;exitX=1;exitY=1;exitDx=0;exitDy=0;" edge="1" parent="1" source="v9z6lBJK89Xw3rwl5iZ4-8" target="v9z6lBJK89Xw3rwl5iZ4-22">
          <mxGeometry relative="1" as="geometry" />
        </mxCell>
        <mxCell id="v9z6lBJK89Xw3rwl5iZ4-8" value="Server" style="ellipse;whiteSpace=wrap;html=1;fillColor=#dae8fc;strokeColor=#6c8ebf;" vertex="1" parent="1">
          <mxGeometry x="300" y="250" width="90" height="50" as="geometry" />
        </mxCell>
        <mxCell id="v9z6lBJK89Xw3rwl5iZ4-27" style="rounded=0;orthogonalLoop=1;jettySize=auto;html=1;exitX=0;exitY=0;exitDx=0;exitDy=0;entryX=1;entryY=0.5;entryDx=0;entryDy=0;endArrow=none;startFill=0;" edge="1" parent="1" source="v9z6lBJK89Xw3rwl5iZ4-11" target="v9z6lBJK89Xw3rwl5iZ4-24">
          <mxGeometry relative="1" as="geometry" />
        </mxCell>
        <mxCell id="v9z6lBJK89Xw3rwl5iZ4-29" style="edgeStyle=orthogonalEdgeStyle;rounded=0;orthogonalLoop=1;jettySize=auto;html=1;entryX=1;entryY=0.5;entryDx=0;entryDy=0;endArrow=none;startFill=0;" edge="1" parent="1" source="v9z6lBJK89Xw3rwl5iZ4-11" target="v9z6lBJK89Xw3rwl5iZ4-25">
          <mxGeometry relative="1" as="geometry" />
        </mxCell>
        <mxCell id="v9z6lBJK89Xw3rwl5iZ4-30" style="rounded=0;orthogonalLoop=1;jettySize=auto;html=1;exitX=0;exitY=1;exitDx=0;exitDy=0;entryX=1;entryY=0.5;entryDx=0;entryDy=0;endArrow=none;startFill=0;" edge="1" parent="1" source="v9z6lBJK89Xw3rwl5iZ4-11" target="v9z6lBJK89Xw3rwl5iZ4-26">
          <mxGeometry relative="1" as="geometry" />
        </mxCell>
        <mxCell id="v9z6lBJK89Xw3rwl5iZ4-11" value="Broker" style="ellipse;whiteSpace=wrap;html=1;fillColor=#ffe6cc;strokeColor=#d79b00;" vertex="1" parent="1">
          <mxGeometry x="180" y="150" width="90" height="50" as="geometry" />
        </mxCell>
        <mxCell id="v9z6lBJK89Xw3rwl5iZ4-20" value="Backend" style="ellipse;whiteSpace=wrap;html=1;fillColor=#f8cecc;strokeColor=#b85450;" vertex="1" parent="1">
          <mxGeometry x="400" y="150" width="90" height="50" as="geometry" />
        </mxCell>
        <mxCell id="v9z6lBJK89Xw3rwl5iZ4-21" value="Config" style="ellipse;whiteSpace=wrap;html=1;fillColor=#f5f5f5;strokeColor=#666666;fontColor=#333333;" vertex="1" parent="1">
          <mxGeometry x="490" y="250" width="90" height="50" as="geometry" />
        </mxCell>
        <mxCell id="v9z6lBJK89Xw3rwl5iZ4-22" value="Lock" style="ellipse;whiteSpace=wrap;html=1;fillColor=#d5e8d4;strokeColor=#82b366;" vertex="1" parent="1">
          <mxGeometry x="420" y="350" width="90" height="50" as="geometry" />
        </mxCell>
        <mxCell id="v9z6lBJK89Xw3rwl5iZ4-23" value="Scheduler" style="ellipse;whiteSpace=wrap;html=1;fillColor=#fff2cc;strokeColor=#d6b656;" vertex="1" parent="1">
          <mxGeometry x="170" y="350" width="90" height="50" as="geometry" />
        </mxCell>
        <mxCell id="v9z6lBJK89Xw3rwl5iZ4-24" value="Worker" style="ellipse;whiteSpace=wrap;html=1;fillColor=#e1d5e7;strokeColor=#9673a6;" vertex="1" parent="1">
          <mxGeometry x="80" y="105" width="70" height="40" as="geometry" />
        </mxCell>
        <mxCell id="v9z6lBJK89Xw3rwl5iZ4-25" value="Worker" style="ellipse;whiteSpace=wrap;html=1;fillColor=#e1d5e7;strokeColor=#9673a6;" vertex="1" parent="1">
          <mxGeometry x="80" y="155" width="70" height="40" as="geometry" />
        </mxCell>
        <mxCell id="v9z6lBJK89Xw3rwl5iZ4-26" value="Worker" style="ellipse;whiteSpace=wrap;html=1;fillColor=#e1d5e7;strokeColor=#9673a6;" vertex="1" parent="1">
          <mxGeometry x="80" y="205" width="70" height="40" as="geometry" />
        </mxCell>
      </root>
    </mxGraphModel>
  </diagram>
  <diagram name="第 3 页" id="m6ldkrlSmw6XZKo9Jw0_">
    <mxGraphModel dx="1810" dy="982" grid="1" gridSize="10" guides="1" tooltips="1" connect="1" arrows="1" fold="1" page="1" pageScale="1" pageWidth="827" pageHeight="1169" math="0" shadow="0">
      <root>
        <mxCell id="0" />
        <mxCell id="1" parent="0" />
        <mxCell id="ZCvvphS9IshZdOJKjDp5-1" style="rounded=0;orthogonalLoop=1;jettySize=auto;html=1;exitX=0;exitY=0;exitDx=0;exitDy=0;entryX=1;entryY=1;entryDx=0;entryDy=0;endArrow=none;startFill=0;endFill=1;" edge="1" parent="1" source="ZCvvphS9IshZdOJKjDp5-6" target="ZCvvphS9IshZdOJKjDp5-10">
          <mxGeometry relative="1" as="geometry" />
        </mxCell>
        <mxCell id="ZCvvphS9IshZdOJKjDp5-2" style="rounded=0;orthogonalLoop=1;jettySize=auto;html=1;entryX=0;entryY=1;entryDx=0;entryDy=0;endArrow=none;startFill=0;exitX=1;exitY=0;exitDx=0;exitDy=0;" edge="1" parent="1" source="ZCvvphS9IshZdOJKjDp5-6" target="ZCvvphS9IshZdOJKjDp5-11">
          <mxGeometry relative="1" as="geometry" />
        </mxCell>
        <mxCell id="ZCvvphS9IshZdOJKjDp5-3" style="rounded=0;orthogonalLoop=1;jettySize=auto;html=1;exitX=1;exitY=0.5;exitDx=0;exitDy=0;entryX=0;entryY=0.5;entryDx=0;entryDy=0;endArrow=none;startFill=0;" edge="1" parent="1" source="ZCvvphS9IshZdOJKjDp5-6" target="ZCvvphS9IshZdOJKjDp5-12">
          <mxGeometry relative="1" as="geometry" />
        </mxCell>
        <mxCell id="ZCvvphS9IshZdOJKjDp5-4" style="rounded=0;orthogonalLoop=1;jettySize=auto;html=1;entryX=1;entryY=0;entryDx=0;entryDy=0;endArrow=none;startFill=0;" edge="1" parent="1" source="ZCvvphS9IshZdOJKjDp5-6" target="ZCvvphS9IshZdOJKjDp5-14">
          <mxGeometry relative="1" as="geometry" />
        </mxCell>
        <mxCell id="ZCvvphS9IshZdOJKjDp5-5" style="rounded=0;orthogonalLoop=1;jettySize=auto;html=1;entryX=0;entryY=0;entryDx=0;entryDy=0;endArrow=none;startFill=0;exitX=1;exitY=1;exitDx=0;exitDy=0;" edge="1" parent="1" source="ZCvvphS9IshZdOJKjDp5-6" target="ZCvvphS9IshZdOJKjDp5-13">
          <mxGeometry relative="1" as="geometry" />
        </mxCell>
        <mxCell id="ZCvvphS9IshZdOJKjDp5-6" value="Server" style="ellipse;whiteSpace=wrap;html=1;fillColor=#dae8fc;strokeColor=#6c8ebf;" vertex="1" parent="1">
          <mxGeometry x="300" y="250" width="90" height="50" as="geometry" />
        </mxCell>
        <mxCell id="ZCvvphS9IshZdOJKjDp5-7" style="rounded=0;orthogonalLoop=1;jettySize=auto;html=1;exitX=0;exitY=0;exitDx=0;exitDy=0;entryX=1;entryY=0.5;entryDx=0;entryDy=0;endArrow=none;startFill=0;" edge="1" parent="1" source="ZCvvphS9IshZdOJKjDp5-10" target="ZCvvphS9IshZdOJKjDp5-15">
          <mxGeometry relative="1" as="geometry" />
        </mxCell>
        <mxCell id="ZCvvphS9IshZdOJKjDp5-8" style="edgeStyle=orthogonalEdgeStyle;rounded=0;orthogonalLoop=1;jettySize=auto;html=1;entryX=1;entryY=0.5;entryDx=0;entryDy=0;endArrow=none;startFill=0;" edge="1" parent="1" source="ZCvvphS9IshZdOJKjDp5-10" target="ZCvvphS9IshZdOJKjDp5-16">
          <mxGeometry relative="1" as="geometry" />
        </mxCell>
        <mxCell id="ZCvvphS9IshZdOJKjDp5-9" style="rounded=0;orthogonalLoop=1;jettySize=auto;html=1;exitX=0;exitY=1;exitDx=0;exitDy=0;entryX=1;entryY=0.5;entryDx=0;entryDy=0;endArrow=none;startFill=0;" edge="1" parent="1" source="ZCvvphS9IshZdOJKjDp5-10" target="ZCvvphS9IshZdOJKjDp5-17">
          <mxGeometry relative="1" as="geometry" />
        </mxCell>
        <mxCell id="ZCvvphS9IshZdOJKjDp5-10" value="Broker" style="ellipse;whiteSpace=wrap;html=1;fillColor=#ffe6cc;strokeColor=#d79b00;" vertex="1" parent="1">
          <mxGeometry x="180" y="150" width="90" height="50" as="geometry" />
        </mxCell>
        <mxCell id="ZCvvphS9IshZdOJKjDp5-11" value="Backend" style="ellipse;whiteSpace=wrap;html=1;fillColor=#f8cecc;strokeColor=#b85450;" vertex="1" parent="1">
          <mxGeometry x="400" y="150" width="90" height="50" as="geometry" />
        </mxCell>
        <mxCell id="ZCvvphS9IshZdOJKjDp5-12" value="Config" style="ellipse;whiteSpace=wrap;html=1;fillColor=#f5f5f5;strokeColor=#666666;fontColor=#333333;" vertex="1" parent="1">
          <mxGeometry x="490" y="250" width="90" height="50" as="geometry" />
        </mxCell>
        <mxCell id="ZCvvphS9IshZdOJKjDp5-13" value="Lock" style="ellipse;whiteSpace=wrap;html=1;fillColor=#d5e8d4;strokeColor=#82b366;" vertex="1" parent="1">
          <mxGeometry x="420" y="350" width="90" height="50" as="geometry" />
        </mxCell>
        <mxCell id="ZCvvphS9IshZdOJKjDp5-14" value="Scheduler" style="ellipse;whiteSpace=wrap;html=1;fillColor=#fff2cc;strokeColor=#d6b656;" vertex="1" parent="1">
          <mxGeometry x="170" y="350" width="90" height="50" as="geometry" />
        </mxCell>
        <mxCell id="ZCvvphS9IshZdOJKjDp5-15" value="Worker" style="ellipse;whiteSpace=wrap;html=1;fillColor=#e1d5e7;strokeColor=#9673a6;" vertex="1" parent="1">
          <mxGeometry x="80" y="105" width="70" height="40" as="geometry" />
        </mxCell>
        <mxCell id="ZCvvphS9IshZdOJKjDp5-16" value="Worker" style="ellipse;whiteSpace=wrap;html=1;fillColor=#e1d5e7;strokeColor=#9673a6;" vertex="1" parent="1">
          <mxGeometry x="80" y="155" width="70" height="40" as="geometry" />
        </mxCell>
        <mxCell id="ZCvvphS9IshZdOJKjDp5-17" value="Worker" style="ellipse;whiteSpace=wrap;html=1;fillColor=#e1d5e7;strokeColor=#9673a6;" vertex="1" parent="1">
          <mxGeometry x="80" y="205" width="70" height="40" as="geometry" />
        </mxCell>
      </root>
    </mxGraphModel>
  </diagram>
</mxfile>
